<mxfile host="app.diagrams.net" agent="Mozilla/5.0 (Windows NT 10.0; Win64; x64; rv:131.0) Gecko/20100101 Firefox/131.0" version="24.7.17">
  <diagram name="Page-1" id="iDtb-3nRgbeIn3tc9Lh9">
    <mxGraphModel dx="3327" dy="1163" grid="1" gridSize="10" guides="1" tooltips="1" connect="1" arrows="1" fold="1" page="1" pageScale="1" pageWidth="850" pageHeight="1100" math="0" shadow="0">
      <root>
        <mxCell id="0" />
        <mxCell id="1" parent="0" />
        <mxCell id="EqWaEVF_EiB0hxEEkpsy-2" value="" style="edgeStyle=orthogonalEdgeStyle;rounded=0;orthogonalLoop=1;jettySize=auto;html=1;" edge="1" parent="1" source="miJuVdG4GaEwq3DAAlen-1" target="EqWaEVF_EiB0hxEEkpsy-1">
          <mxGeometry relative="1" as="geometry" />
        </mxCell>
        <mxCell id="miJuVdG4GaEwq3DAAlen-1" value="start" style="ellipse;whiteSpace=wrap;html=1;" parent="1" vertex="1">
          <mxGeometry x="360" y="100" width="120" height="80" as="geometry" />
        </mxCell>
        <mxCell id="EqWaEVF_EiB0hxEEkpsy-6" value="" style="edgeStyle=orthogonalEdgeStyle;rounded=0;orthogonalLoop=1;jettySize=auto;html=1;" edge="1" parent="1" source="EqWaEVF_EiB0hxEEkpsy-1" target="EqWaEVF_EiB0hxEEkpsy-5">
          <mxGeometry relative="1" as="geometry" />
        </mxCell>
        <mxCell id="EqWaEVF_EiB0hxEEkpsy-1" value="&lt;div&gt;1. masukkan username&lt;/div&gt;&lt;div&gt;2. masukkan password&lt;br&gt;&lt;/div&gt;" style="whiteSpace=wrap;html=1;" vertex="1" parent="1">
          <mxGeometry x="350" y="230" width="140" height="60" as="geometry" />
        </mxCell>
        <mxCell id="EqWaEVF_EiB0hxEEkpsy-9" value="" style="edgeStyle=orthogonalEdgeStyle;rounded=0;orthogonalLoop=1;jettySize=auto;html=1;" edge="1" parent="1" source="EqWaEVF_EiB0hxEEkpsy-5" target="EqWaEVF_EiB0hxEEkpsy-8">
          <mxGeometry relative="1" as="geometry" />
        </mxCell>
        <mxCell id="EqWaEVF_EiB0hxEEkpsy-5" value="&quot;silahkan pilih akun jika belum memiliki akun dan jika sudah memiliki akun silahkan login&quot;" style="shape=parallelogram;perimeter=parallelogramPerimeter;whiteSpace=wrap;html=1;fixedSize=1;" vertex="1" parent="1">
          <mxGeometry x="315" y="340" width="210" height="80" as="geometry" />
        </mxCell>
        <mxCell id="EqWaEVF_EiB0hxEEkpsy-11" value="" style="edgeStyle=orthogonalEdgeStyle;rounded=0;orthogonalLoop=1;jettySize=auto;html=1;" edge="1" parent="1" source="EqWaEVF_EiB0hxEEkpsy-8" target="EqWaEVF_EiB0hxEEkpsy-10">
          <mxGeometry relative="1" as="geometry" />
        </mxCell>
        <mxCell id="EqWaEVF_EiB0hxEEkpsy-8" value="login" style="shape=parallelogram;perimeter=parallelogramPerimeter;whiteSpace=wrap;html=1;fixedSize=1;" vertex="1" parent="1">
          <mxGeometry x="360" y="470" width="120" height="60" as="geometry" />
        </mxCell>
        <mxCell id="EqWaEVF_EiB0hxEEkpsy-13" value="" style="edgeStyle=orthogonalEdgeStyle;rounded=0;orthogonalLoop=1;jettySize=auto;html=1;" edge="1" parent="1" source="EqWaEVF_EiB0hxEEkpsy-10" target="EqWaEVF_EiB0hxEEkpsy-12">
          <mxGeometry relative="1" as="geometry" />
        </mxCell>
        <mxCell id="EqWaEVF_EiB0hxEEkpsy-14" value="True" style="edgeLabel;html=1;align=center;verticalAlign=middle;resizable=0;points=[];" vertex="1" connectable="0" parent="EqWaEVF_EiB0hxEEkpsy-13">
          <mxGeometry x="-0.0625" relative="1" as="geometry">
            <mxPoint as="offset" />
          </mxGeometry>
        </mxCell>
        <mxCell id="EqWaEVF_EiB0hxEEkpsy-23" value="False" style="edgeStyle=orthogonalEdgeStyle;rounded=0;orthogonalLoop=1;jettySize=auto;html=1;" edge="1" parent="1" source="EqWaEVF_EiB0hxEEkpsy-10">
          <mxGeometry relative="1" as="geometry">
            <mxPoint x="215.04761904761904" y="640.0216450216451" as="targetPoint" />
          </mxGeometry>
        </mxCell>
        <mxCell id="EqWaEVF_EiB0hxEEkpsy-10" value="opsi 1" style="rhombus;whiteSpace=wrap;html=1;" vertex="1" parent="1">
          <mxGeometry x="365" y="580" width="110" height="50" as="geometry" />
        </mxCell>
        <mxCell id="EqWaEVF_EiB0hxEEkpsy-16" value="" style="edgeStyle=orthogonalEdgeStyle;rounded=0;orthogonalLoop=1;jettySize=auto;html=1;" edge="1" parent="1" source="EqWaEVF_EiB0hxEEkpsy-12" target="EqWaEVF_EiB0hxEEkpsy-15">
          <mxGeometry relative="1" as="geometry" />
        </mxCell>
        <mxCell id="EqWaEVF_EiB0hxEEkpsy-12" value="output username" style="shape=parallelogram;perimeter=parallelogramPerimeter;whiteSpace=wrap;html=1;fixedSize=1;" vertex="1" parent="1">
          <mxGeometry x="490" y="640" width="140" height="50" as="geometry" />
        </mxCell>
        <mxCell id="EqWaEVF_EiB0hxEEkpsy-18" value="" style="edgeStyle=orthogonalEdgeStyle;rounded=0;orthogonalLoop=1;jettySize=auto;html=1;" edge="1" parent="1" source="EqWaEVF_EiB0hxEEkpsy-15" target="EqWaEVF_EiB0hxEEkpsy-17">
          <mxGeometry relative="1" as="geometry" />
        </mxCell>
        <mxCell id="EqWaEVF_EiB0hxEEkpsy-15" value="input masukkanusername" style="shape=parallelogram;perimeter=parallelogramPerimeter;whiteSpace=wrap;html=1;fixedSize=1;" vertex="1" parent="1">
          <mxGeometry x="490" y="730" width="140" height="50" as="geometry" />
        </mxCell>
        <mxCell id="EqWaEVF_EiB0hxEEkpsy-20" value="" style="edgeStyle=orthogonalEdgeStyle;rounded=0;orthogonalLoop=1;jettySize=auto;html=1;" edge="1" parent="1" source="EqWaEVF_EiB0hxEEkpsy-17" target="EqWaEVF_EiB0hxEEkpsy-19">
          <mxGeometry relative="1" as="geometry" />
        </mxCell>
        <mxCell id="EqWaEVF_EiB0hxEEkpsy-17" value="output password" style="shape=parallelogram;perimeter=parallelogramPerimeter;whiteSpace=wrap;html=1;fixedSize=1;" vertex="1" parent="1">
          <mxGeometry x="495" y="820" width="130" height="40" as="geometry" />
        </mxCell>
        <mxCell id="EqWaEVF_EiB0hxEEkpsy-87" value="" style="edgeStyle=orthogonalEdgeStyle;rounded=0;orthogonalLoop=1;jettySize=auto;html=1;entryX=1;entryY=0.5;entryDx=0;entryDy=0;entryPerimeter=0;" edge="1" parent="1" source="EqWaEVF_EiB0hxEEkpsy-19" target="EqWaEVF_EiB0hxEEkpsy-89">
          <mxGeometry relative="1" as="geometry">
            <mxPoint x="410" y="1280" as="targetPoint" />
            <Array as="points">
              <mxPoint x="560" y="1280" />
            </Array>
          </mxGeometry>
        </mxCell>
        <mxCell id="EqWaEVF_EiB0hxEEkpsy-19" value="input masukkanpassword" style="shape=parallelogram;perimeter=parallelogramPerimeter;whiteSpace=wrap;html=1;fixedSize=1;" vertex="1" parent="1">
          <mxGeometry x="490" y="910" width="140" height="50" as="geometry" />
        </mxCell>
        <mxCell id="EqWaEVF_EiB0hxEEkpsy-37" value="True" style="edgeStyle=orthogonalEdgeStyle;rounded=0;orthogonalLoop=1;jettySize=auto;html=1;" edge="1" parent="1" source="EqWaEVF_EiB0hxEEkpsy-24" target="EqWaEVF_EiB0hxEEkpsy-36">
          <mxGeometry relative="1" as="geometry" />
        </mxCell>
        <mxCell id="EqWaEVF_EiB0hxEEkpsy-48" value="" style="edgeStyle=orthogonalEdgeStyle;rounded=0;orthogonalLoop=1;jettySize=auto;html=1;" edge="1" parent="1" source="EqWaEVF_EiB0hxEEkpsy-24" target="EqWaEVF_EiB0hxEEkpsy-47">
          <mxGeometry relative="1" as="geometry" />
        </mxCell>
        <mxCell id="EqWaEVF_EiB0hxEEkpsy-54" value="False" style="edgeLabel;html=1;align=center;verticalAlign=middle;resizable=0;points=[];" vertex="1" connectable="0" parent="EqWaEVF_EiB0hxEEkpsy-48">
          <mxGeometry x="-0.2634" y="-1" relative="1" as="geometry">
            <mxPoint x="1" as="offset" />
          </mxGeometry>
        </mxCell>
        <mxCell id="EqWaEVF_EiB0hxEEkpsy-24" value="opsi 2" style="rhombus;whiteSpace=wrap;html=1;" vertex="1" parent="1">
          <mxGeometry x="160" y="640" width="110" height="50" as="geometry" />
        </mxCell>
        <mxCell id="EqWaEVF_EiB0hxEEkpsy-39" value="" style="edgeStyle=orthogonalEdgeStyle;rounded=0;orthogonalLoop=1;jettySize=auto;html=1;" edge="1" parent="1" source="EqWaEVF_EiB0hxEEkpsy-36" target="EqWaEVF_EiB0hxEEkpsy-38">
          <mxGeometry relative="1" as="geometry" />
        </mxCell>
        <mxCell id="EqWaEVF_EiB0hxEEkpsy-36" value="&lt;div&gt;output silahkan login!&lt;br&gt;&lt;/div&gt;" style="shape=parallelogram;perimeter=parallelogramPerimeter;whiteSpace=wrap;html=1;fixedSize=1;" vertex="1" parent="1">
          <mxGeometry x="305" y="710" width="145" height="50" as="geometry" />
        </mxCell>
        <mxCell id="EqWaEVF_EiB0hxEEkpsy-41" value="" style="edgeStyle=orthogonalEdgeStyle;rounded=0;orthogonalLoop=1;jettySize=auto;html=1;" edge="1" parent="1" source="EqWaEVF_EiB0hxEEkpsy-38" target="EqWaEVF_EiB0hxEEkpsy-40">
          <mxGeometry relative="1" as="geometry" />
        </mxCell>
        <mxCell id="EqWaEVF_EiB0hxEEkpsy-38" value="login berhasil!" style="shape=parallelogram;perimeter=parallelogramPerimeter;whiteSpace=wrap;html=1;fixedSize=1;" vertex="1" parent="1">
          <mxGeometry x="306.25" y="800" width="142.5" height="45" as="geometry" />
        </mxCell>
        <mxCell id="EqWaEVF_EiB0hxEEkpsy-43" value="" style="edgeStyle=orthogonalEdgeStyle;rounded=0;orthogonalLoop=1;jettySize=auto;html=1;" edge="1" parent="1" source="EqWaEVF_EiB0hxEEkpsy-40" target="EqWaEVF_EiB0hxEEkpsy-42">
          <mxGeometry relative="1" as="geometry" />
        </mxCell>
        <mxCell id="EqWaEVF_EiB0hxEEkpsy-40" value="lihat daftar cuaca" style="shape=parallelogram;perimeter=parallelogramPerimeter;whiteSpace=wrap;html=1;fixedSize=1;" vertex="1" parent="1">
          <mxGeometry x="292.5" y="880" width="170" height="50" as="geometry" />
        </mxCell>
        <mxCell id="EqWaEVF_EiB0hxEEkpsy-46" value="" style="edgeStyle=orthogonalEdgeStyle;rounded=0;orthogonalLoop=1;jettySize=auto;html=1;" edge="1" parent="1" source="EqWaEVF_EiB0hxEEkpsy-42" target="EqWaEVF_EiB0hxEEkpsy-45">
          <mxGeometry relative="1" as="geometry" />
        </mxCell>
        <mxCell id="EqWaEVF_EiB0hxEEkpsy-42" value="output lihat daftar cuaca" style="shape=parallelogram;perimeter=parallelogramPerimeter;whiteSpace=wrap;html=1;fixedSize=1;" vertex="1" parent="1">
          <mxGeometry x="298.75" y="970" width="157.5" height="46.25" as="geometry" />
        </mxCell>
        <mxCell id="EqWaEVF_EiB0hxEEkpsy-84" value="" style="edgeStyle=orthogonalEdgeStyle;rounded=0;orthogonalLoop=1;jettySize=auto;html=1;entryX=0.5;entryY=0;entryDx=0;entryDy=0;entryPerimeter=0;" edge="1" parent="1" source="EqWaEVF_EiB0hxEEkpsy-45" target="EqWaEVF_EiB0hxEEkpsy-89">
          <mxGeometry relative="1" as="geometry">
            <mxPoint x="378" y="1270" as="targetPoint" />
            <Array as="points">
              <mxPoint x="378" y="1185" />
            </Array>
          </mxGeometry>
        </mxCell>
        <mxCell id="EqWaEVF_EiB0hxEEkpsy-45" value="logout" style="shape=parallelogram;perimeter=parallelogramPerimeter;whiteSpace=wrap;html=1;fixedSize=1;" vertex="1" parent="1">
          <mxGeometry x="326.25" y="1059" width="102.5" height="40.63" as="geometry" />
        </mxCell>
        <mxCell id="EqWaEVF_EiB0hxEEkpsy-52" value="" style="edgeStyle=orthogonalEdgeStyle;rounded=0;orthogonalLoop=1;jettySize=auto;html=1;" edge="1" parent="1" source="EqWaEVF_EiB0hxEEkpsy-47" target="EqWaEVF_EiB0hxEEkpsy-51">
          <mxGeometry relative="1" as="geometry" />
        </mxCell>
        <mxCell id="EqWaEVF_EiB0hxEEkpsy-53" value="True" style="edgeLabel;html=1;align=center;verticalAlign=middle;resizable=0;points=[];" vertex="1" connectable="0" parent="EqWaEVF_EiB0hxEEkpsy-52">
          <mxGeometry x="-0.4041" y="-1" relative="1" as="geometry">
            <mxPoint as="offset" />
          </mxGeometry>
        </mxCell>
        <mxCell id="EqWaEVF_EiB0hxEEkpsy-58" value="" style="edgeStyle=orthogonalEdgeStyle;rounded=0;orthogonalLoop=1;jettySize=auto;html=1;" edge="1" parent="1" source="EqWaEVF_EiB0hxEEkpsy-47" target="EqWaEVF_EiB0hxEEkpsy-57">
          <mxGeometry relative="1" as="geometry" />
        </mxCell>
        <mxCell id="EqWaEVF_EiB0hxEEkpsy-47" value="opsi 3" style="rhombus;whiteSpace=wrap;html=1;" vertex="1" parent="1">
          <mxGeometry x="-160" y="730" width="110" height="50" as="geometry" />
        </mxCell>
        <mxCell id="EqWaEVF_EiB0hxEEkpsy-56" value="" style="edgeStyle=orthogonalEdgeStyle;rounded=0;orthogonalLoop=1;jettySize=auto;html=1;" edge="1" parent="1" source="EqWaEVF_EiB0hxEEkpsy-51" target="EqWaEVF_EiB0hxEEkpsy-55">
          <mxGeometry relative="1" as="geometry" />
        </mxCell>
        <mxCell id="EqWaEVF_EiB0hxEEkpsy-51" value="logout" style="shape=parallelogram;perimeter=parallelogramPerimeter;whiteSpace=wrap;html=1;fixedSize=1;" vertex="1" parent="1">
          <mxGeometry x="40" y="800" width="120" height="40" as="geometry" />
        </mxCell>
        <mxCell id="EqWaEVF_EiB0hxEEkpsy-80" value="" style="edgeStyle=orthogonalEdgeStyle;rounded=0;orthogonalLoop=1;jettySize=auto;html=1;" edge="1" parent="1" source="EqWaEVF_EiB0hxEEkpsy-55">
          <mxGeometry relative="1" as="geometry">
            <mxPoint x="100" y="1040" as="targetPoint" />
          </mxGeometry>
        </mxCell>
        <mxCell id="EqWaEVF_EiB0hxEEkpsy-55" value="output apakah anda yakkin ingin logout?" style="shape=parallelogram;perimeter=parallelogramPerimeter;whiteSpace=wrap;html=1;fixedSize=1;" vertex="1" parent="1">
          <mxGeometry x="30" y="880" width="140" height="60" as="geometry" />
        </mxCell>
        <mxCell id="EqWaEVF_EiB0hxEEkpsy-62" value="" style="edgeStyle=orthogonalEdgeStyle;rounded=0;orthogonalLoop=1;jettySize=auto;html=1;" edge="1" parent="1" source="EqWaEVF_EiB0hxEEkpsy-57" target="EqWaEVF_EiB0hxEEkpsy-61">
          <mxGeometry relative="1" as="geometry" />
        </mxCell>
        <mxCell id="EqWaEVF_EiB0hxEEkpsy-67" value="" style="edgeStyle=orthogonalEdgeStyle;rounded=0;orthogonalLoop=1;jettySize=auto;html=1;" edge="1" parent="1" source="EqWaEVF_EiB0hxEEkpsy-57">
          <mxGeometry relative="1" as="geometry">
            <mxPoint x="-540" y="1040" as="targetPoint" />
          </mxGeometry>
        </mxCell>
        <mxCell id="EqWaEVF_EiB0hxEEkpsy-57" value="opsi 4" style="rhombus;whiteSpace=wrap;html=1;" vertex="1" parent="1">
          <mxGeometry x="-410" y="795" width="110" height="50" as="geometry" />
        </mxCell>
        <mxCell id="EqWaEVF_EiB0hxEEkpsy-65" value="" style="edgeStyle=orthogonalEdgeStyle;rounded=0;orthogonalLoop=1;jettySize=auto;html=1;" edge="1" parent="1" source="EqWaEVF_EiB0hxEEkpsy-61" target="EqWaEVF_EiB0hxEEkpsy-64">
          <mxGeometry relative="1" as="geometry" />
        </mxCell>
        <mxCell id="EqWaEVF_EiB0hxEEkpsy-61" value="output logout" style="shape=parallelogram;perimeter=parallelogramPerimeter;whiteSpace=wrap;html=1;fixedSize=1;" vertex="1" parent="1">
          <mxGeometry x="-250" y="860" width="120" height="40" as="geometry" />
        </mxCell>
        <mxCell id="EqWaEVF_EiB0hxEEkpsy-69" value="" style="edgeStyle=orthogonalEdgeStyle;rounded=0;orthogonalLoop=1;jettySize=auto;html=1;" edge="1" parent="1" source="EqWaEVF_EiB0hxEEkpsy-64">
          <mxGeometry relative="1" as="geometry">
            <mxPoint x="-190" y="1040" as="targetPoint" />
          </mxGeometry>
        </mxCell>
        <mxCell id="EqWaEVF_EiB0hxEEkpsy-64" value="input loggout berhasil" style="shape=parallelogram;perimeter=parallelogramPerimeter;whiteSpace=wrap;html=1;fixedSize=1;" vertex="1" parent="1">
          <mxGeometry x="-250" y="940" width="120" height="40" as="geometry" />
        </mxCell>
        <mxCell id="EqWaEVF_EiB0hxEEkpsy-73" value="" style="edgeStyle=segmentEdgeStyle;endArrow=classic;html=1;curved=0;rounded=0;endSize=8;startSize=8;sourcePerimeterSpacing=0;targetPerimeterSpacing=0;entryX=0;entryY=0.5;entryDx=0;entryDy=0;entryPerimeter=0;" edge="1" parent="1" target="EqWaEVF_EiB0hxEEkpsy-89">
          <mxGeometry width="100" relative="1" as="geometry">
            <mxPoint x="-550" y="1040" as="sourcePoint" />
            <mxPoint x="360" y="1280" as="targetPoint" />
            <Array as="points">
              <mxPoint x="100" y="1040" />
              <mxPoint x="100" y="1280" />
            </Array>
          </mxGeometry>
        </mxCell>
        <mxCell id="EqWaEVF_EiB0hxEEkpsy-89" value="END" style="strokeWidth=2;html=1;shape=mxgraph.flowchart.start_1;whiteSpace=wrap;" vertex="1" parent="1">
          <mxGeometry x="328.75" y="1260" width="100" height="40" as="geometry" />
        </mxCell>
      </root>
    </mxGraphModel>
  </diagram>
</mxfile>
